<?xml version="1.0" encoding="UTF-8"?>
<svg xmlns="http://www.w3.org/2000/svg" viewBox="0 0 512 512" width="512" height="512">
<rect width="512" height="512" fill="#1C938A"/>
<path d="M0 0 C3.98708993 1.39072898 6.75275336 3.48754522 9.98828125 6.1484375 C10.58125 6.62087891 11.17421875 7.09332031 11.78515625 7.58007812 C13.23608253 8.73847895 14.67585297 9.91082921 16.11328125 11.0859375 C19.60645008 9.53070383 22.34196886 7.43156989 25.30078125 5.0234375 C26.18121094 4.31058594 27.06164062 3.59773438 27.96875 2.86328125 C29.04549957 1.97089317 30.12440661 1.07481214 31.11328125 0.0859375 C33.76160714 -0.42616972 35.46835039 -0.32329803 37.77001953 1.13720703 C40.25491953 3.10727395 42.63901783 5.18067844 45.02929688 7.26367188 C45.62548828 7.76318359 46.22167969 8.26269531 46.8359375 8.77734375 C47.36968994 9.24342041 47.90344238 9.70949707 48.45336914 10.18969727 C50.0975133 11.27897588 50.0975133 11.27897588 52.12695312 10.87524414 C56.00099324 9.33581792 59.10557927 6.20158269 62.24804688 3.50390625 C66.41589164 0.10932557 66.41589164 0.10932557 69.67578125 0 C72.83978671 1.409605 75.07621965 3.30092647 77.67578125 5.5859375 C81.8608898 9.45058786 81.8608898 9.45058786 87.11328125 11.0859375 C88.83662781 10.20942356 88.83662781 10.20942356 90.35546875 8.7421875 C91.24298828 7.98615234 91.24298828 7.98615234 92.1484375 7.21484375 C93.37062657 6.13277827 94.58941363 5.04685749 95.8046875 3.95703125 C100.3191644 0.12804976 100.3191644 0.12804976 104.20703125 -0.078125 C107.8836558 1.3945015 109.95987092 3.40122114 112.73828125 6.2109375 C115.86195472 9.78264857 115.86195472 9.78264857 120.078125 11.1796875 C124.1562202 8.98800486 127.57729964 5.85001847 131.140625 2.921875 C134.11328125 1.0859375 134.11328125 1.0859375 136.8671875 1.1875 C139.11328125 2.0859375 139.11328125 2.0859375 141.11328125 4.0859375 C141.37499428 6.44037819 141.37499428 6.44037819 141.39175415 9.4515686 C141.40849937 11.15955879 141.40849937 11.15955879 141.42558289 12.90205383 C141.42774307 14.15721298 141.42990326 15.41237213 141.43212891 16.70556641 C141.44217453 18.02259048 141.45222015 19.33961456 141.46257019 20.69654846 C141.48993762 24.3140708 141.50503944 27.93155406 141.51799822 31.54915285 C141.53359939 35.32752258 141.56039914 39.10581214 141.58602905 42.88412476 C141.63287039 50.04159507 141.6695885 57.19908037 141.70270193 64.35662591 C141.74088558 72.50408787 141.79030551 80.65146941 141.84068608 88.79886365 C141.94408554 105.56116391 142.03331977 122.32350871 142.11328125 139.0859375 C142.69819336 138.20856934 143.28310547 137.33120117 143.88574219 136.42724609 C144.27324646 135.84598969 144.66075073 135.26473328 145.05999756 134.66586304 C145.48492493 134.02847198 145.90985229 133.39108093 146.34765625 132.734375 C146.78209045 132.08272369 147.21652466 131.43107239 147.66412354 130.75967407 C148.11398621 130.08488007 148.56384888 129.41008606 149.02734375 128.71484375 C159.82324219 112.52099609 159.82324219 112.52099609 160.98718262 110.78289795 C161.74397087 109.64246522 162.4910207 108.49551549 163.2286377 107.34259033 C165.90458435 103.19028595 165.90458435 103.19028595 168.11328125 102.0859375 C172.05499976 101.55926625 173.62097125 101.72351354 176.8671875 104.11328125 C177.8224896 105.06452543 178.75763559 106.03628192 179.67578125 107.0234375 C180.44124268 107.82273682 180.44124268 107.82273682 181.22216797 108.63818359 C201.15941898 129.95752436 214.8239059 155.75033536 221.30078125 184.2109375 C221.46787598 184.93893555 221.6349707 185.66693359 221.80712891 186.41699219 C226.2363619 206.7522349 226.08133052 229.87896621 221.11328125 250.0859375 C220.81526611 251.31352783 220.81526611 251.31352783 220.51123047 252.56591797 C209.51079686 296.60885254 182.5968324 335.3778857 143.62451172 359.19775391 C103.73915386 382.7825358 57.49786565 391.01253137 12.11328125 381.0859375 C11.30455566 380.90933594 10.49583008 380.73273438 9.66259766 380.55078125 C-18.23124944 374.18582142 -44.75102586 359.82204939 -65.55859375 340.26171875 C-67.3724019 338.56659939 -69.18901585 336.99347215 -71.13671875 335.4609375 C-74.20078855 332.8146954 -76.75520722 329.93679455 -79.37109375 326.85546875 C-80.91879507 325.00248843 -80.91879507 325.00248843 -82.88671875 323.0859375 C-82.88671875 321.7659375 -82.88671875 320.4459375 -82.88671875 319.0859375 C-83.76457031 318.7146875 -83.76457031 318.7146875 -84.66015625 318.3359375 C-94.38291057 312.87754911 -99.9537719 298.55920038 -104.88671875 289.0859375 C-105.2209082 288.45558594 -105.55509766 287.82523437 -105.89941406 287.17578125 C-121.29518268 257.83515414 -126.35730274 221.57436706 -119.88671875 189.0859375 C-119.73605957 188.31008301 -119.58540039 187.53422852 -119.43017578 186.73486328 C-113.33826897 156.1582897 -97.41284634 123.20216749 -72.65234375 103.22265625 C-70.88671875 102.0859375 -70.88671875 102.0859375 -67.82421875 101.0859375 C-59.24744865 104.00568902 -53.42111134 117.62785581 -48.51171875 125.0859375 C-47.28618622 126.94179889 -46.05963269 128.79697471 -44.83187866 130.65136719 C-43.73309114 132.31183199 -42.6372167 133.97422339 -41.54150391 135.63671875 C-40.10311316 137.9328922 -40.10311316 137.9328922 -38.88671875 139.0859375 C-38.8843304 138.39294902 -38.88194204 137.69996054 -38.87948132 136.9859724 C-38.82038443 120.13585151 -38.7448687 103.28589275 -38.65100384 86.43593121 C-38.60600906 78.28746011 -38.56660299 70.13903309 -38.5402832 61.99047852 C-38.51733283 54.88945325 -38.48396823 47.788567 -38.43801719 40.68765193 C-38.41404476 36.92660593 -38.39534245 33.16569796 -38.38910484 29.40457726 C-38.38195217 25.20921513 -38.35155264 21.01433441 -38.3190918 16.8190918 C-38.32124443 14.94174599 -38.32124443 14.94174599 -38.32344055 13.026474 C-38.30463333 11.31642181 -38.30463333 11.31642181 -38.28544617 9.57182312 C-38.2808372 8.57905208 -38.27622824 7.58628103 -38.27147961 6.56342602 C-37.88671875 4.0859375 -37.88671875 4.0859375 -36.50632954 2.24184895 C-34.88671875 1.0859375 -34.88671875 1.0859375 -32.57421875 1.10546875 C-28.51432964 2.58662016 -25.58360175 5.2983552 -22.34765625 8.11132812 C-20.6639102 9.53960327 -20.6639102 9.53960327 -17.88671875 11.0859375 C-12.48681233 10.16540551 -9.17008316 5.64251962 -5.484375 1.88671875 C-2.88671875 0.0859375 -2.88671875 0.0859375 0 0 Z " fill="#F9F9F9" transform="translate(203.88671875,60.9140625)"/>
<path d="M0 0 C4.1096165 2.11850793 7.92071669 4.63303038 11.75756836 7.20526123 C12.63172897 7.78345108 13.50588959 8.36164093 14.40653992 8.95735168 C17.24665578 10.83820122 20.08026239 12.72860922 22.91381836 14.61932373 C24.89822463 15.93637749 26.88301065 17.25285926 28.86816406 18.56878662 C33.81410554 21.84981296 38.7547153 25.13875796 43.69317627 28.43103027 C46.18293159 30.09043893 48.67376122 31.74821375 51.1652832 33.40496826 C51.89125702 33.88772217 52.61723083 34.37047607 53.36520386 34.86785889 C54.41600632 35.56661133 54.41600632 35.56661133 55.48803711 36.27947998 C59.50351751 38.94985746 63.51687974 41.62321031 67.52124023 44.3102417 C73.77480911 48.50423324 80.04448602 52.66659062 86.37263489 56.74751282 C89.47806872 58.75214502 92.57459765 60.77030445 95.67056274 62.78952026 C97.15183151 63.75015753 98.63743532 64.70414705 100.12753296 65.65103149 C102.18217014 66.95723189 104.22082638 68.28545113 106.25756836 69.61932373 C106.86933426 69.99964249 107.48110016 70.37996124 108.11140442 70.77180481 C111.11916333 72.77478711 112.31212878 73.90507121 113.36450195 77.41595459 C113.41381836 80.24432373 113.41381836 80.24432373 112.35913086 82.12322998 C75.37063647 116.33361856 27.91117703 133.17625101 -22.25073242 131.44403076 C-31.49515062 130.89052951 -40.55163514 129.22037518 -49.58618164 127.24432373 C-50.79927002 126.97942139 -50.79927002 126.97942139 -52.03686523 126.70916748 C-79.90201317 120.35075637 -106.55215552 105.99994421 -127.28149414 86.37322998 C-129.49996517 84.23357285 -129.49996517 84.23357285 -131.84790039 82.63494873 C-133.58618164 81.24432373 -133.58618164 81.24432373 -134.27368164 78.43182373 C-133.13277458 73.14216372 -128.72496318 70.70086465 -124.39111328 67.74945068 C-122.03546586 66.23945887 -119.66106024 64.76609691 -117.27368164 63.30682373 C-112.46616737 60.3486548 -107.70750825 57.3698287 -103.10180664 54.10369873 C-96.23172917 49.2421976 -89.17080528 44.67015638 -82.1317749 40.05874634 C-77.89936426 37.28567105 -73.67040982 34.50733762 -69.44165039 31.72869873 C-68.59987244 31.1756456 -67.75809448 30.62259247 -66.89080811 30.05278015 C-57.34040344 23.77414437 -47.83063458 17.43533401 -38.32836914 11.08416748 C-37.38703125 10.45623291 -36.44569336 9.82829834 -35.47583008 9.18133545 C-33.4317695 7.81114479 -31.39394389 6.43163124 -29.3605957 5.04559326 C-28.30324219 4.32871338 -27.24588867 3.6118335 -26.15649414 2.87322998 C-25.20790527 2.22555664 -24.25931641 1.5778833 -23.28198242 0.9105835 C-15.20185631 -4.0836984 -8.43589218 -3.92701585 0 0 Z " fill="#F8B030" transform="translate(265.586181640625,314.75567626953125)"/>
<path d="M0 0 C0.33 0 0.66 0 1 0 C0.99132684 0.70124308 0.98265368 1.40248615 0.97371769 2.12497902 C0.76667254 19.29049777 0.64462834 36.45459253 0.61396885 53.62133217 C0.59715007 61.92372224 0.5529236 70.22417894 0.44116211 78.52587891 C0.34367311 85.77282223 0.30067433 93.01783325 0.31963962 100.26543939 C0.32784663 104.0941354 0.31114093 107.91860061 0.22885323 111.74650955 C-0.16458881 131.05267927 2.13068452 144.54057269 15.11201286 159.72264481 C18.10475019 163.33258778 20.66491731 167.21827282 23.25 171.125 C23.83136719 171.97384766 24.41273438 172.82269531 25.01171875 173.69726562 C29.77594834 180.66087244 34.51387439 187.64226895 39.25 194.625 C40.0568029 195.81437208 40.86360628 197.00374382 41.67041016 198.19311523 C44.94575529 203.02183522 48.22083747 207.85073328 51.49511719 212.68017578 C53.49325273 215.6271307 55.49251856 218.57331594 57.49255371 221.51898193 C58.60682494 223.16072133 59.71992618 224.80325462 60.83300781 226.44580078 C61.49913086 227.42661621 62.16525391 228.40743164 62.8515625 229.41796875 C63.43760254 230.28188232 64.02364258 231.1457959 64.62744141 232.03588867 C65.85262138 233.91081011 65.85262138 233.91081011 67 235 C67.23356482 238.02485589 67.2361678 239.30543199 66 242 C62.74617185 245.05821556 58.97217308 247.27832689 55.1875 249.625 C53.9969678 250.38745075 52.80805643 251.15243705 51.62060547 251.91967773 C48.93804205 253.65006471 46.24861166 255.36910957 43.55517578 257.08251953 C34.84587033 262.64064035 26.24696705 268.37034028 17.625 274.0625 C15.7413331 275.30491209 13.8576253 276.54726217 11.97387695 277.78955078 C7.2498102 280.90568135 2.52796638 284.0251621 -2.19311523 287.14581299 C-4.98229108 288.98830175 -7.77326815 290.82803716 -10.56445312 292.66748047 C-14.94253005 295.55486069 -19.31120265 298.45597044 -23.67315674 301.36764526 C-25.29645511 302.44838269 -26.92268765 303.52472693 -28.55194092 304.59646606 C-30.79534451 306.07337003 -33.02764704 307.56570808 -35.2578125 309.0625 C-35.91706726 309.49143051 -36.57632202 309.92036102 -37.2555542 310.36228943 C-40.89098473 312.8310706 -42.86390145 314.69720651 -44 319 C-44.0825 318.38125 -44.165 317.7625 -44.25 317.125 C-44.77428751 314.84593128 -44.77428751 314.84593128 -46.8203125 314.1171875 C-56.50204288 309.15486691 -62.21574803 294.18770827 -67 285 C-67.33418945 284.36964844 -67.66837891 283.73929687 -68.01269531 283.08984375 C-83.40846393 253.74921664 -88.47058399 217.48842956 -82 185 C-81.84934082 184.22414551 -81.69868164 183.44829102 -81.54345703 182.64892578 C-75.45155022 152.0723522 -59.52612759 119.11622999 -34.765625 99.13671875 C-33 98 -33 98 -29.9375 97 C-21.3607299 99.91975152 -15.53439259 113.54191831 -10.625 121 C-9.39946747 122.85586139 -8.17291394 124.71103721 -6.94515991 126.56542969 C-5.84637239 128.22589449 -4.75049795 129.88828589 -3.65478516 131.55078125 C-2.21639441 133.8469547 -2.21639441 133.8469547 -1 135 C-0.67 90.45 -0.34 45.9 0 0 Z " fill="#59C9B7" transform="translate(166,65)"/>
<path d="M0 0 C0.33 0 0.66 0 1 0 C1.33 44.55 1.66 89.1 2 135 C8.6 125.1 15.2 115.2 22 105 C26 99 26 99 28 98 C31.94171851 97.47332875 33.50769 97.63757604 36.75390625 100.02734375 C37.70920835 100.97858793 38.64435434 101.95034442 39.5625 102.9375 C40.07280762 103.47036621 40.58311523 104.00323242 41.10888672 104.55224609 C61.04613773 125.87158686 74.71062465 151.66439786 81.1875 180.125 C81.35459473 180.85299805 81.52168945 181.58099609 81.69384766 182.33105469 C86.12308065 202.6662974 85.96804927 225.79302871 81 246 C80.70198486 247.22759033 80.70198486 247.22759033 80.39794922 248.47998047 C74.28977557 272.93555213 63.7918069 300.32880544 45 318 C44.75406097 317.40165344 44.50812195 316.80330688 44.25473022 316.18682861 C42.77769072 313.61254437 41.40247803 312.623243 38.92431641 311.01074219 C38.08228668 310.45626404 37.24025696 309.90178589 36.37271118 309.33050537 C35.45823212 308.74190735 34.54375305 308.15330933 33.6015625 307.546875 C32.6562265 306.92782288 31.7108905 306.30877075 30.73690796 305.67095947 C27.7052782 303.68845101 24.66540422 301.7190191 21.625 299.75 C19.61531629 298.43967456 17.60619515 297.12848584 15.59765625 295.81640625 C11.73428348 293.29381447 7.86842392 290.77511069 4.00048828 288.25952148 C-0.62134657 285.25073351 -5.22080218 282.21207849 -9.80224609 279.14208984 C-13.29418801 276.80293132 -16.79293072 274.47416356 -20.29238892 272.14627075 C-23.96248753 269.70474919 -27.63136955 267.2614023 -31.30029297 264.81811523 C-33.18673794 263.56217006 -35.07345774 262.30663759 -36.96044922 261.05151367 C-39.72697947 259.21123635 -42.49248572 257.36942885 -45.2578125 255.52734375 C-46.08725372 254.97610336 -46.91669495 254.42486298 -47.77127075 253.85691833 C-49.37237954 252.78956278 -50.9681779 251.71419179 -52.5581665 250.63034058 C-54.2893518 249.47447895 -56.05036097 248.36273148 -57.83001709 247.2829895 C-64.74423614 242.92016269 -64.74423614 242.92016269 -65.95703125 238.55688477 C-64.71007831 233.92248237 -62.58791966 230.86015227 -59.6875 227.08984375 C-58.5736814 225.57931686 -57.46174437 224.06740099 -56.3515625 222.55419922 C-55.50513184 221.41274445 -55.50513184 221.41274445 -54.64160156 220.24822998 C-52.18095188 216.87828534 -49.8708624 213.41647497 -47.5625 209.94140625 C-47.14441196 209.31486649 -46.72632393 208.68832672 -46.29556656 208.0428009 C-43.87521735 204.41014372 -41.48135947 200.76363391 -39.12884521 197.0866394 C-34.280437 189.57146923 -29.42836075 182.29181152 -23.52448654 175.55708027 C3.53769875 144.64362692 2.71706136 113.45871227 1.46213961 74.62136716 C1.20428741 66.46202861 1.11518642 58.30305528 1.03581858 50.14034152 C0.86969457 33.42099235 0.5055947 16.71261784 0 0 Z " fill="#9388E8" transform="translate(344,65)"/>
<path d="M0 0 C6.42532877 4.42720824 10.26744947 10.31654671 12.5625 17.765625 C12.89410769 20.26902954 12.82691253 22.22726469 12.5625 24.765625 C10.86954655 26.45857845 8.73353516 25.89312229 6.41601562 25.89501953 C5.31817749 25.89817169 4.22033936 25.90132385 3.0892334 25.90457153 C1.89447388 25.9025473 0.69971436 25.90052307 -0.53125 25.8984375 C-1.74824585 25.89939423 -2.9652417 25.90035095 -4.21911621 25.90133667 C-6.79825899 25.90201872 -9.37740347 25.90016272 -11.95654297 25.89599609 C-15.92028636 25.89064822 -19.88391642 25.89594029 -23.84765625 25.90234375 C-26.34635442 25.90168297 -28.84505252 25.90040182 -31.34375 25.8984375 C-33.13588928 25.90147385 -33.13588928 25.90147385 -34.9642334 25.90457153 C-36.06207153 25.90141937 -37.15990967 25.89826721 -38.29101562 25.89501953 C-39.74876404 25.89382614 -39.74876404 25.89382614 -41.23596191 25.89260864 C-43.4375 25.765625 -43.4375 25.765625 -44.4375 24.765625 C-44.51444831 16.87072865 -42.83967906 10.41786751 -37.41796875 4.59765625 C-26.31837597 -5.7833939 -13.43778539 -7.64810126 0 0 Z " fill="#FBFBFD" transform="translate(380.4375,285.234375)"/>
<path d="M0 0 C5.47243224 3.97258044 9.75181819 9.37076483 11.63671875 15.9140625 C11.69277053 17.6392296 11.70633954 19.36606113 11.68798828 21.09204102 C11.67688522 22.44568504 11.67688522 22.44568504 11.66555786 23.82667542 C11.65604095 24.51551315 11.64652405 25.20435089 11.63671875 25.9140625 C3.82219123 25.93932813 -3.99232583 25.95689355 -11.80688477 25.96899414 C-14.46769606 25.97403633 -17.12850457 25.98086986 -19.78930664 25.98950195 C-23.60433641 26.00157259 -27.41932969 26.00729179 -31.234375 26.01171875 C-33.03121986 26.01946068 -33.03121986 26.01946068 -34.86436462 26.02735901 C-36.51596336 26.02747231 -36.51596336 26.02747231 -38.20092773 26.02758789 C-39.17577621 26.0298085 -40.15062469 26.03202911 -41.15501404 26.03431702 C-43.36328125 25.9140625 -43.36328125 25.9140625 -44.36328125 24.9140625 C-45.12933482 17.71315895 -43.01248095 11.40048107 -38.6328125 5.63671875 C-28.03442631 -5.72322812 -13.64687596 -7.68889407 0 0 Z " fill="#FAFCFC" transform="translate(161.36328125,285.0859375)"/>
<path d="M0 0 C7.22998627 4.52411022 13.21632754 10.09067655 15.97265625 18.234375 C15.97265625 21.534375 15.97265625 24.834375 15.97265625 28.234375 C-2.50734375 28.234375 -20.98734375 28.234375 -40.02734375 28.234375 C-40.02734375 18.22732932 -39.30400043 13.56902323 -32.90234375 6.546875 C-23.94744501 -1.72502299 -11.59125438 -5.21729496 0 0 Z " fill="#FDFCFA" transform="translate(267.02734375,380.765625)"/>
<path d="M0 0 C2.33294775 -0.04241723 4.66702567 -0.04092937 7 0 C8 1 8 1 8.0625 4.0625 C8.041875 5.031875 8.02125 6.00125 8 7 C9.5778125 7.3403125 9.5778125 7.3403125 11.1875 7.6875 C16.38307373 9.1599298 19.07152109 12.60728163 22 17 C22.1875 19.625 22.1875 19.625 22 22 C21 23 21 23 17.1875 23.4375 C14.9765625 23.4296875 14.9765625 23.4296875 13 23 C12.360625 22.030625 11.72125 21.06125 11.0625 20.0625 C9.37664847 16.87982386 9.37664847 16.87982386 6.8671875 16.30859375 C1.6459745 15.62989584 1.6459745 15.62989584 -3 18 C-3.66676878 21.45749949 -3.66676878 21.45749949 -3 25 C-0.1524209 27.6577405 3.14424533 28.34630609 6.8125 29.375 C12.82655524 31.09843075 17.80532621 33.53099198 22 38.25 C23.88723672 43.43990098 23.66505481 48.14484711 21.8125 53.3125 C18.81463612 57.75760851 16.50575406 59.70378609 11.1875 60.75 C10.135625 60.8325 9.08375 60.915 8 61 C8.020625 61.969375 8.04125 62.93875 8.0625 63.9375 C8 67 8 67 7 68 C4.66702567 68.04092937 2.33294775 68.04241723 0 68 C-0.495 65.03 -0.495 65.03 -1 62 C-2.5778125 61.6596875 -2.5778125 61.6596875 -4.1875 61.3125 C-9.38307373 59.8400702 -12.07152109 56.39271837 -15 52 C-15.07905064 49.66800612 -15.08798769 47.33167378 -15 45 C-11.9259738 44.64530467 -9.05893451 44.46732347 -6 45 C-3.5 47.9375 -3.5 47.9375 -2 51 C-0.78556725 52.43827256 -0.78556725 52.43827256 2.8125 52.1875 C6.03540201 52.1585691 8.25544723 51.82970185 11 50 C11 47.69 11 45.38 11 43 C6.64786551 40.66274259 2.65627776 38.82301868 -2.125 37.5625 C-7.66886801 35.98462987 -11.28632832 33.80419002 -14.375 28.75 C-15.52208462 23.70282766 -16.43787912 19.30848539 -13.57421875 14.7109375 C-10.73347999 11.36531369 -8.15676816 8.6030947 -4 7 C-2.68 7 -1.36 7 0 7 C0 4.69 0 2.38 0 0 Z " fill="#1C625A" transform="translate(252,96)"/>
<path d="M0 0 C0.88334518 -0.00563965 1.76669037 -0.0112793 2.67680359 -0.01708984 C3.64829849 -0.01304138 4.6197934 -0.00899292 5.62072754 -0.00482178 C7.1525341 -0.01007874 7.1525341 -0.01007874 8.71528625 -0.01544189 C12.10375693 -0.02427187 15.49202022 -0.01840554 18.88049316 -0.01165771 C21.22696981 -0.013004 23.57344619 -0.01494422 25.91992188 -0.01745605 C30.84284109 -0.02040904 35.76568783 -0.01610405 40.68859863 -0.0067749 C47.01085935 0.00461967 53.33295029 -0.00193886 59.65520477 -0.01391983 C64.50206795 -0.02113371 69.34889063 -0.01885267 74.195755 -0.01366425 C76.52745076 -0.01232644 78.85915016 -0.01398001 81.19084167 -0.01862335 C84.44491369 -0.0236808 87.69870758 -0.01598925 90.95275879 -0.00482178 C91.92425369 -0.00887024 92.8957486 -0.0129187 93.89668274 -0.01708984 C95.22170052 -0.00863037 95.22170052 -0.00863037 96.57348633 0 C97.72828365 0.00113108 97.72828365 0.00113108 98.90641022 0.002285 C100.78674316 0.25396729 100.78674316 0.25396729 102.78674316 2.25396729 C103.03674316 4.75396729 103.03674316 4.75396729 102.78674316 7.25396729 C100.38160242 9.65910803 99.85401739 9.50472142 96.57348633 9.50793457 C95.24846855 9.51639404 95.24846855 9.51639404 93.89668274 9.52502441 C92.92518784 9.52097595 91.95369293 9.51692749 90.95275879 9.51275635 C89.93155441 9.51626099 88.91035004 9.51976562 87.85820007 9.52337646 C84.46972939 9.53220644 81.08146611 9.52634011 77.69299316 9.51959229 C75.34651652 9.52093857 73.00004014 9.52287879 70.65356445 9.52539062 C65.73064524 9.52834361 60.8077985 9.52403862 55.8848877 9.51470947 C49.56262697 9.5033149 43.24053604 9.50987343 36.91828156 9.5218544 C32.07141837 9.52906828 27.2245957 9.52678724 22.37773132 9.52159882 C20.04603556 9.52026101 17.71433617 9.52191458 15.38264465 9.52655792 C12.12857263 9.53161537 8.87477875 9.52392382 5.62072754 9.51275635 C4.64923264 9.51680481 3.67773773 9.52085327 2.67680359 9.52502441 C1.7934584 9.51938477 0.91011322 9.51374512 0 9.50793457 C-0.76986488 9.50718052 -1.53972977 9.50642647 -2.33292389 9.50564957 C-4.21325684 9.25396729 -4.21325684 9.25396729 -6.21325684 7.25396729 C-6.46325684 4.75396729 -6.46325684 4.75396729 -6.21325684 2.25396729 C-3.80811609 -0.15117346 -3.28053106 0.00321315 0 0 Z " fill="#A6B9B8" transform="translate(207.2132568359375,184.74603271484375)"/>
<circle cx="364.5" cy="259.5" r="17" fill="#FCFBFD"/>
<circle cx="254.5" cy="357" r="17" fill="#FDFCFA"/>
<circle cx="145" cy="259" r="17" fill="#FBFDFC"/>
<path d="M0 0 C1.03218407 -0.00788544 1.03218407 -0.00788544 2.08522034 -0.01593018 C4.35977885 -0.02913383 6.6336375 -0.02039136 8.90820312 -0.01025391 C10.48856745 -0.01227455 12.06893086 -0.01518591 13.64929199 -0.01895142 C16.96143471 -0.02337524 20.27333471 -0.01694201 23.58544922 -0.00292969 C27.83274403 0.01416245 32.07947014 0.00432155 36.32674408 -0.01364708 C39.5901112 -0.02448346 42.85334331 -0.0210393 46.11671448 -0.0132637 C47.68282641 -0.01126128 49.24895056 -0.01372246 50.81504822 -0.02070236 C53.00333156 -0.02831472 55.19069174 -0.01671701 57.37890625 0 C58.62450317 0.00238678 59.8701001 0.00477356 61.15344238 0.00723267 C64.18945312 0.38818359 64.18945312 0.38818359 66.12683105 1.71713257 C67.18945312 3.38818359 67.18945312 3.38818359 67.00195312 6.51318359 C66.73382813 7.46193359 66.46570313 8.41068359 66.18945312 9.38818359 C63.2575964 10.85411196 60.65831468 10.52361113 57.38476562 10.53344727 C56.68542908 10.53680588 55.98609253 10.54016449 55.26556396 10.54362488 C52.94850907 10.55314207 50.63152636 10.55507824 48.31445312 10.55615234 C46.70784474 10.55936393 45.10123666 10.56272793 43.49462891 10.5662384 C40.12531862 10.57223127 36.75603399 10.5740781 33.38671875 10.57348633 C29.06207642 10.57338459 24.73759785 10.58704794 20.41299438 10.60425854 C17.0948002 10.61535674 13.77664591 10.61740623 10.45843506 10.6168766 C8.86358067 10.61805959 7.26872535 10.6224991 5.67388916 10.63020897 C3.44718824 10.63996692 1.22084689 10.6371479 -1.00585938 10.63110352 C-2.27445801 10.63252853 -3.54305664 10.63395355 -4.85009766 10.63542175 C-7.81054688 10.38818359 -7.81054688 10.38818359 -9.81054688 8.38818359 C-10.15932614 5.66770534 -10.26389488 4.06616931 -8.7166748 1.75228882 C-5.85316505 -0.29695906 -3.49219581 0.00669165 0 0 Z " fill="#ABBCBA" transform="translate(210.810546875,208.61181640625)"/>
<path d="M0 0 C0.8910997 -0.00960754 1.7821994 -0.01921509 2.70030212 -0.02911377 C3.66488846 -0.03336365 4.62947479 -0.03761353 5.62329102 -0.04199219 C7.10660667 -0.0505423 7.10660667 -0.0505423 8.61988831 -0.05926514 C10.71386645 -0.06872095 12.80785951 -0.07525142 14.90185547 -0.07910156 C18.11069555 -0.08881722 21.31889797 -0.11983941 24.52758789 -0.15136719 C26.55948512 -0.15789608 28.59138694 -0.163147 30.62329102 -0.16699219 C32.06713417 -0.18551239 32.06713417 -0.18551239 33.54014587 -0.20440674 C34.88152367 -0.19990509 34.88152367 -0.19990509 36.25 -0.1953125 C37.43008888 -0.20078094 37.43008888 -0.20078094 38.63401794 -0.20635986 C41.2264909 0.25709512 42.13795561 1.06205467 43.68969727 3.16113281 C43.44516603 6.50305974 43.08426169 7.76656839 40.68969727 10.16113281 C38.76100159 10.4151001 38.76100159 10.4151001 36.37939453 10.41992188 C35.48829483 10.4262262 34.59719513 10.43253052 33.67909241 10.43902588 C32.71450607 10.43497742 31.74991974 10.43092896 30.75610352 10.42675781 C29.27278786 10.42962799 29.27278786 10.42962799 27.75950623 10.43255615 C25.66551459 10.43391879 23.57151453 10.43021689 21.47753906 10.421875 C18.2687686 10.411188 15.06055947 10.4217619 11.85180664 10.43457031 C9.81990436 10.43324851 7.78800243 10.43068569 5.75610352 10.42675781 C4.79354141 10.43080627 3.83097931 10.43485474 2.83924866 10.43902588 C1.9449968 10.43272156 1.05074493 10.42641724 0.12939453 10.41992188 C-0.65733139 10.41833069 -1.44405731 10.4167395 -2.25462341 10.4151001 C-4.31030273 10.16113281 -4.31030273 10.16113281 -7.31030273 8.16113281 C-7.0546895 5.81801151 -6.71759501 3.48269878 -6.31030273 1.16113281 C-3.98179907 -0.00311902 -2.59375894 0.02253405 0 0 Z " fill="#ABBDBB" transform="translate(208.310302734375,234.8388671875)"/>
<path d="M0 0 C8.0869638 2.75300895 13.86638807 15.56819878 18.4375 22.375 C19.17742187 23.45394531 19.91734375 24.53289062 20.6796875 25.64453125 C21.37320313 26.67707031 22.06671875 27.70960938 22.78125 28.7734375 C23.72774414 30.17215088 23.72774414 30.17215088 24.69335938 31.59912109 C25.30920898 32.78755615 25.30920898 32.78755615 25.9375 34 C25.6075 34.99 25.2775 35.98 24.9375 37 C24.33276855 36.06615479 23.72803711 35.13230957 23.10498047 34.17016602 C20.85364687 30.70441248 18.57809357 27.25514795 16.29492188 23.81030273 C15.31070969 22.31793751 14.33309562 20.82119878 13.36230469 19.32006836 C11.964459 17.16112571 10.54352312 15.01910023 9.1171875 12.87890625 C8.47461502 11.86951744 8.47461502 11.86951744 7.81906128 10.83973694 C5.6839717 7.68492104 4.42954271 6.1530641 0.73779297 5.00463867 C-2.59603465 4.9991162 -3.44509482 5.46639677 -5.8125 7.75 C-6.82376953 8.72259766 -6.82376953 8.72259766 -7.85546875 9.71484375 C-8.58378906 10.46894531 -9.31210938 11.22304687 -10.0625 12 C-10.88363281 12.84691406 -11.70476562 13.69382813 -12.55078125 14.56640625 C-17.98344446 20.36179659 -22.7177341 26.35871498 -27.0625 33 C-27.62453125 33.82757813 -28.1865625 34.65515625 -28.765625 35.5078125 C-33.93507727 43.30856255 -37.99967836 51.58943157 -42.0625 60 C-43.46906262 55.78031215 -41.70341713 53.24384633 -39.875 49.4375 C-39.51696289 48.68879639 -39.15892578 47.94009277 -38.79003906 47.16870117 C-31.45606727 32.33575865 -16.82646047 5.49435444 0 0 Z " fill="#6ED6C4" transform="translate(136.0625,162)"/>
<path d="M0 0 C2.21583866 1.68004161 3.88859173 3.17688065 5.75 5.1875 C6.26079102 5.71762695 6.77158203 6.24775391 7.29785156 6.79394531 C12.67236712 12.48793671 17.39256969 18.68007346 22 25 C21.34 25.66 20.68 26.32 20 27 C17 23.25 17 23.25 17 21 C16.34 21 15.68 21 15 21 C13.4140625 19.42578125 13.4140625 19.42578125 11.625 17.3125 C10.99980469 16.58160156 10.37460937 15.85070312 9.73046875 15.09765625 C8.42482626 13.51496998 7.16853831 11.89138441 5.9375 10.25 C3.53893262 7.46456692 1.24759629 5.72321436 -2 4 C-4.48155002 3.85783581 -4.48155002 3.85783581 -7 5 C-8.84583931 7.106987 -10.34350415 9.05973685 -11.875 11.375 C-12.30627197 12.00188721 -12.73754395 12.62877441 -13.18188477 13.2746582 C-16.42853878 18.02913964 -19.52858405 22.87853947 -22.52734375 27.79296875 C-23.86876116 29.80331579 -25.22434607 31.37275894 -27 33 C-26.43430112 29.0099372 -25.24235081 26.44714198 -22.98046875 23.12890625 C-22.37009766 22.22462891 -21.75972656 21.32035156 -21.13085938 20.38867188 C-20.48955078 19.45603516 -19.84824219 18.52339844 -19.1875 17.5625 C-18.55779297 16.63373047 -17.92808594 15.70496094 -17.27929688 14.74804688 C-16.06344613 12.95552819 -14.84340704 11.16584134 -13.61865234 9.37939453 C-12.27472875 7.40384712 -10.96884538 5.41117912 -9.67578125 3.40234375 C-6.96791237 -0.47956619 -4.58308318 -0.54797734 0 0 Z " fill="#A19AED" transform="translate(378,163)"/>
<path d="M0 0 C3.9792022 3.48636523 6.2382646 7.55151436 8.75 12.125 C9.16121094 12.85332031 9.57242187 13.58164063 9.99609375 14.33203125 C13 19.7310787 13 19.7310787 13 22 C12.34 22 11.68 22 11 22 C10.62488281 21.21496094 10.24976563 20.42992187 9.86328125 19.62109375 C6.43160338 12.52029082 6.43160338 12.52029082 2.125 5.9375 C0 3 0 3 0 0 Z " fill="#A098ED" transform="translate(400,190)"/>
</svg>
